<?xml version="1.0" ?><!DOCTYPE svg  PUBLIC '-//W3C//DTD SVG 1.1//EN'  'http://www.w3.org/Graphics/SVG/1.1/DTD/svg11.dtd'><svg height="8" width="8" version="1.1" viewBox="0 0 96 96" xmlns="http://www.w3.org/2000/svg" xmlns:xlink="http://www.w3.org/1999/xlink"><path d="M74 58c-3.656 0-7.152 1.116-10.192 3.252l-23.844-13.148c0.020-0.252 0.036-0.512 0.036-0.764 0-0.14-0.004-0.276-0.012-0.416l23.532-12.368c3.096 2.256 6.692 3.444 10.48 3.444 9.924 0 18-8.080 18-18s-8.076-18-18-18c-9.92 0-18 8.080-18 18 0 0.14 0.004 0.272 0.012 0.416l-23.532 12.364c-3.096-2.252-6.692-3.44-10.48-3.44-9.924 0-18 8.076-18 18 0 9.916 8.076 18 18 18 3.656 0 7.152-1.112 10.192-3.252l23.844 13.148c-0.020 0.252-0.036 0.508-0.036 0.764 0 9.92 8.080 18 18 18s18-8.080 18-18-8.080-18-18-18z" fill="#a9a9a9"/></svg>